<svg width="25" height="25" viewBox="0 0 25 25" fill="none" xmlns="http://www.w3.org/2000/svg">
<path fill-rule="evenodd" clip-rule="evenodd" d="M8.21718 3.26715H17.9316C18.5757 3.26715 19.1935 3.52302 19.6489 3.97847C20.1044 4.43393 20.3602 5.05165 20.3602 5.69576V17.8388C20.3602 18.4829 20.1044 19.1006 19.6489 19.5561C19.1935 20.0116 18.5757 20.2674 17.9316 20.2674V19.0531C18.2537 19.0531 18.5625 18.9252 18.7903 18.6975C19.018 18.4697 19.1459 18.1609 19.1459 17.8388V5.69576C19.1459 5.37371 19.018 5.06484 18.7903 4.83712C18.5625 4.60939 18.2537 4.48146 17.9316 4.48146H8.21718C7.89513 4.48146 7.58627 4.60939 7.35854 4.83712C7.34254 4.85311 7.32704 4.86951 7.31204 4.88629H16.7885C17.3407 4.88629 17.7885 5.334 17.7885 5.88629V20.8866C17.7885 21.4388 17.3407 21.8866 16.7885 21.8866H4.2168C3.66451 21.8866 3.2168 21.4388 3.2168 20.8866V5.88629C3.2168 5.334 3.66451 4.88629 4.2168 4.88629H5.92745C6.04706 4.54795 6.24131 4.23706 6.4999 3.97847C6.95535 3.52302 7.57308 3.26715 8.21718 3.26715Z" fill="#006EFF"/>
</svg>
