<svg width="16" height="17" viewBox="0 0 16 17" fill="none" xmlns="http://www.w3.org/2000/svg">
<g clip-path="url(#clip0_54_308)">
<path d="M2 0.5C1.46957 0.5 0.960859 0.710714 0.585786 1.08579C0.210714 1.46086 0 1.96957 0 2.5L0 15.293C2.10149e-05 15.3919 0.0293926 15.4886 0.0843973 15.5709C0.139402 15.6531 0.217567 15.7172 0.308999 15.755C0.400432 15.7928 0.501021 15.8026 0.598036 15.7832C0.695051 15.7638 0.784131 15.716 0.854 15.646L3.707 12.793C3.89449 12.6055 4.14881 12.5001 4.414 12.5H14C14.5304 12.5 15.0391 12.2893 15.4142 11.9142C15.7893 11.5391 16 11.0304 16 10.5V2.5C16 1.96957 15.7893 1.46086 15.4142 1.08579C15.0391 0.710714 14.5304 0.5 14 0.5H2Z" fill="#B7C9F8"/>
</g>
<defs>
<clipPath id="clip0_54_308">
<rect width="16" height="16" fill="white" transform="translate(0 0.5)"/>
</clipPath>
</defs>
</svg>
