<svg width="15" height="17" viewBox="0 0 15 17" fill="none" xmlns="http://www.w3.org/2000/svg">
<path d="M3.75002 0C3.45414 0 3.21429 0.261756 3.21429 0.584661V2.38375H4.28571V0.584661C4.28571 0.261756 4.04586 0 3.75002 0Z" fill="#B7C9F8"/>
<path d="M11.25 0C10.9541 0 10.7142 0.261756 10.7142 0.584661V2.38375H11.7857V0.584661C11.7857 0.261756 11.5458 0 11.25 0Z" fill="#B7C9F8"/>
<path fill-rule="evenodd" clip-rule="evenodd" d="M11.7857 2.38377H13.3929C14.2805 2.38377 15 3.16904 15 4.13772V15.2461C15 16.2148 14.2805 17 13.3929 17H1.60714C0.719541 17 0 16.2148 0 15.2461V4.13772C0 3.16904 0.719541 2.38377 1.60714 2.38377H3.21425V4.72238C3.21425 5.04528 3.4541 5.30704 3.74998 5.30704C4.04585 5.30704 4.2857 5.04528 4.2857 4.72238V2.38377H10.7143V4.72238C10.7143 5.04528 10.9541 5.30704 11.25 5.30704C11.5459 5.30704 11.7857 5.04528 11.7857 4.72238V2.38377ZM13.3928 15.8308C13.6887 15.8308 13.9286 15.569 13.9286 15.2461V7.64565H1.07144V15.2461C1.07144 15.569 1.31128 15.8308 1.60716 15.8308H13.3928Z" fill="#B7C9F8"/>
</svg>
