<svg width="16" height="17" viewBox="0 0 16 17" fill="none" xmlns="http://www.w3.org/2000/svg">
<g clip-path="url(#clip0_54_325)">
<path d="M10 4.83331C9.63203 4.83331 9.33336 4.53464 9.33336 4.16664V3.16664H6.6667V4.16664C6.6667 4.53464 6.36804 4.83331 6.00004 4.83331C5.63204 4.83331 5.33337 4.53464 5.33337 4.16664V3.16664C5.33337 2.43131 5.93137 1.83331 6.6667 1.83331H9.33336C10.0687 1.83331 10.6667 2.43131 10.6667 3.16664V4.16664C10.6667 4.53464 10.368 4.83331 10 4.83331Z" fill="#B7C9F8"/>
<path d="M8.47333 10.7533C8.35333 10.8 8.18 10.8333 8 10.8333C7.82 10.8333 7.64667 10.8 7.48667 10.74L0 8.24668V13.3333C0 14.3467 0.82 15.1667 1.83333 15.1667H14.1667C15.18 15.1667 16 14.3467 16 13.3333V8.24668L8.47333 10.7533Z" fill="#B7C9F8"/>
<path d="M16 5.66664V7.19331L8.16 9.80664C8.10667 9.82664 8.05333 9.83331 8 9.83331C7.94667 9.83331 7.89333 9.82664 7.84 9.80664L0 7.19331V5.66664C0 4.65331 0.82 3.83331 1.83333 3.83331H14.1667C15.18 3.83331 16 4.65331 16 5.66664Z" fill="#B7C9F8"/>
</g>
<defs>
<clipPath id="clip0_54_325">
<rect width="16" height="16" fill="white" transform="translate(0 0.5)"/>
</clipPath>
</defs>
</svg>
