<svg width="16" height="16" viewBox="0 0 16 16" fill="none" xmlns="http://www.w3.org/2000/svg">
<path d="M2.10724 7.5159C2.06823 7.51944 2.04853 7.47139 2.07623 7.44369C2.15296 7.36696 2.2297 7.29022 2.30643 7.21349C2.42538 7.09454 2.54577 6.97415 2.66472 6.8552C2.70771 6.81221 2.75071 6.76921 2.7937 6.72622C2.85246 6.66746 2.91552 6.613 2.96854 6.54851C3.10039 6.39373 3.12615 6.16725 3.03581 5.98519C2.94403 5.8017 2.7462 5.68985 2.54122 5.70271C2.40218 5.71272 2.28466 5.77864 2.18864 5.87466C2.12271 5.94058 2.05535 6.00794 1.98943 6.07386C1.89484 6.16845 1.80169 6.2616 1.7071 6.35619C1.57525 6.48804 1.4434 6.61989 1.31155 6.75174C1.20407 6.85922 1.09515 6.96814 0.987663 7.07563C0.900242 7.16305 0.81282 7.25047 0.723965 7.33933C0.646576 7.41672 0.567753 7.49554 0.490363 7.57293C0.445936 7.61736 0.395775 7.66178 0.357082 7.71194C0.229539 7.8739 0.210949 8.10467 0.312756 8.28674C0.355773 8.36128 0.421721 8.4215 0.481936 8.48171C0.605234 8.60501 0.727097 8.72687 0.850395 8.85017C0.969391 8.96917 1.08982 9.0896 1.20882 9.20859C1.29771 9.29748 1.38803 9.3878 1.47692 9.47669C1.57871 9.57848 1.67907 9.67884 1.78086 9.78063C1.91563 9.9154 2.05039 10.0502 2.18516 10.1849C2.27692 10.2767 2.38157 10.3441 2.51345 10.3613C2.71699 10.3871 2.91909 10.2854 3.02226 10.1077C3.124 9.9314 3.10962 9.70492 2.98775 9.54292C2.9304 9.4655 2.85441 9.40098 2.78703 9.3336C2.68094 9.22751 2.57628 9.12285 2.47019 9.01676C2.37126 8.91783 2.2709 8.81747 2.17198 8.71855C2.10875 8.65532 2.15382 8.54706 2.24324 8.54718C2.48752 8.5475 2.73181 8.547 2.97609 8.54813C3.26564 8.54818 3.55376 8.54967 3.84187 8.54829C4.11136 8.54834 4.38084 8.54839 4.65032 8.54845C4.91694 8.5485 5.18642 8.54855 5.45303 8.5486C5.65658 8.54864 5.86012 8.54868 6.06224 8.55015C6.10524 8.55016 6.14824 8.55017 6.19124 8.55017C6.38332 8.54734 6.56248 8.44274 6.64988 8.26931C6.73872 8.09732 6.72005 7.88374 6.60391 7.72747C6.50641 7.59558 6.35159 7.52101 6.18818 7.52098C6.03767 7.51952 5.88716 7.52092 5.73522 7.52089C5.46717 7.51941 5.19912 7.52079 4.93107 7.51931C4.63579 7.51925 4.34337 7.51919 4.04809 7.51914C3.71554 7.51907 3.38299 7.51901 3.049 7.51751C2.73508 7.51602 2.42116 7.51739 2.10724 7.5159ZM7.48874 9.8792C7.4888 10.1831 7.48885 10.487 7.48891 10.7908C7.48753 11.0388 7.48901 11.2868 7.48762 11.5348C7.48767 11.7699 7.48771 12.005 7.48632 12.2415C7.48494 12.5066 7.48642 12.7718 7.48504 13.037C7.4851 13.361 7.48516 13.682 7.48523 14.006C7.48523 14.0155 7.47372 14.0203 7.46699 14.0136C7.31812 13.8647 7.16804 13.7146 7.01928 13.5659C6.86588 13.4124 6.71391 13.2605 6.5605 13.1071C6.47448 13.0211 6.37126 12.9608 6.25085 12.9436C6.09317 12.9206 5.93264 12.9751 5.81942 13.0883L5.82086 13.0869C5.7019 13.2058 5.64747 13.3778 5.67903 13.5412C5.69912 13.653 5.75648 13.7477 5.83533 13.8265C5.94859 13.9398 6.06042 14.0516 6.17368 14.1649C6.35146 14.3426 6.52924 14.5204 6.70845 14.6996C6.86759 14.8588 7.02816 15.0193 7.1873 15.1785C7.28909 15.2803 7.39088 15.3821 7.49268 15.4839C7.53855 15.5297 7.583 15.5742 7.62888 15.6201C7.71776 15.7089 7.83102 15.7677 7.95716 15.7792C8.11054 15.7922 8.25817 15.7363 8.36709 15.6302C8.40435 15.593 8.44161 15.5557 8.47744 15.5199C8.58779 15.4095 8.69814 15.2992 8.80849 15.1888C8.96614 15.0312 9.12379 14.8735 9.28143 14.7159C9.45341 14.5439 9.62539 14.3719 9.79736 14.2C9.91488 14.0824 10.031 13.9664 10.1485 13.8488C10.2115 13.7858 10.2674 13.7184 10.3004 13.6338C10.3577 13.4819 10.3405 13.3099 10.253 13.1737C10.0752 12.8956 9.68243 12.864 9.45026 13.0933C9.36428 13.1793 9.27972 13.2638 9.19373 13.3498C9.01172 13.5318 8.82971 13.7138 8.6477 13.8958C8.59904 13.9445 8.51583 13.9101 8.51582 13.8412C8.5158 13.7572 8.51579 13.6731 8.51577 13.5891C8.51574 13.3999 8.51427 13.2092 8.51566 13.0186C8.51564 12.9125 8.51562 12.8093 8.5156 12.7032C8.51556 12.4911 8.51552 12.2761 8.51548 12.0639C8.51546 11.975 8.51545 11.8862 8.51543 11.7973C8.51539 11.5823 8.51391 11.3658 8.51531 11.1494C8.51529 11.0519 8.51527 10.9545 8.51525 10.857C8.51521 10.6563 8.51517 10.4585 8.51514 10.2578C8.51512 10.1603 8.5151 10.0657 8.51508 9.96827C8.51507 9.9052 8.51792 9.84213 8.50644 9.77905C8.46914 9.57263 8.30139 9.40776 8.09641 9.36902C7.88999 9.32884 7.67643 9.42197 7.56322 9.59826C7.51737 9.68426 7.48872 9.78173 7.48874 9.8792ZM13.0912 5.8194C12.8905 6.02004 12.8963 6.34686 13.0928 6.54901C13.1702 6.62643 13.249 6.70528 13.3264 6.7827C13.4813 6.93754 13.6376 7.09381 13.7924 7.24865C13.8811 7.33734 13.8186 7.48899 13.6932 7.48953C13.4853 7.49042 13.2771 7.49131 13.07 7.49219C12.7862 7.49214 12.5024 7.49495 12.2186 7.4949C11.9534 7.49628 11.6896 7.49623 11.4244 7.49761C11.1621 7.499 10.8984 7.49895 10.6346 7.50176C10.4325 7.50316 10.2318 7.50312 10.0297 7.50451C9.98386 7.5045 9.93942 7.50593 9.89499 7.50449C9.71725 7.50732 9.55099 7.59903 9.45354 7.74808C9.34893 7.91004 9.34181 8.11788 9.43644 8.28418C9.52535 8.44474 9.69594 8.54368 9.87942 8.54658C10.0156 8.54804 10.1518 8.54663 10.2894 8.54666C10.5589 8.54671 10.8283 8.54676 11.0964 8.54824C11.3888 8.5483 11.6812 8.54836 11.9751 8.54985C12.3048 8.54991 12.633 8.5514 12.9613 8.55003C13.2694 8.55153 13.5776 8.55015 13.8858 8.55164C13.9246 8.55165 13.9451 8.60128 13.9177 8.6287C13.7301 8.81628 13.5434 9.00301 13.3556 9.19085C13.2553 9.29117 13.1535 9.39005 13.0546 9.49181C12.9342 9.61506 12.8784 9.79136 12.9128 9.96051C12.953 10.1555 13.1078 10.3132 13.3013 10.3576C13.4762 10.3978 13.6554 10.3419 13.7815 10.2187C13.8302 10.17 13.879 10.1212 13.9262 10.0739C14.0309 9.96932 14.1355 9.8647 14.2401 9.76008C14.4536 9.54654 14.6672 9.333 14.8807 9.11947C15.1072 8.89303 15.3336 8.66659 15.5615 8.43872C15.5729 8.42726 15.5844 8.41579 15.5959 8.40433C15.6933 8.30688 15.7621 8.16641 15.7664 8.02737C15.7692 7.8955 15.7362 7.74785 15.6444 7.64749C15.5742 7.57151 15.4968 7.49983 15.4222 7.42527C15.2774 7.28047 15.1312 7.13423 14.9864 6.98943C14.8416 6.84463 14.6968 6.69983 14.5534 6.55646C14.4086 6.41165 14.2638 6.26685 14.119 6.12205C14.0244 6.02743 13.9298 5.9328 13.8366 5.83961C13.7821 5.78513 13.7233 5.73782 13.6516 5.70914C13.5269 5.65608 13.3836 5.65605 13.2589 5.70619C13.1987 5.73198 13.1399 5.77068 13.0912 5.8194ZM8.36417 0.364353C8.56489 0.56507 8.7656 0.765787 8.96632 0.966503C9.19714 1.19733 9.42797 1.42815 9.65879 1.65897C9.74338 1.74356 9.82797 1.82815 9.91255 1.91274C9.98424 1.98442 10.0559 2.05611 10.1276 2.12779C10.1979 2.19804 10.2652 2.26829 10.3011 2.36434C10.3699 2.54783 10.327 2.75997 10.1937 2.90185C10.0604 3.04086 9.85688 3.09529 9.67196 3.03936C9.55154 3.00206 9.46839 2.92178 9.38237 2.83576C9.32932 2.78271 9.27484 2.72823 9.22179 2.67518C9.00674 2.46013 8.79169 2.24508 8.57663 2.03002C8.55495 2.00833 8.51786 2.0237 8.51787 2.05437C8.51793 2.3539 8.51798 2.65544 8.51804 2.95456C8.5181 3.24411 8.51815 3.53653 8.51821 3.82608C8.51826 4.09556 8.51831 4.36505 8.51836 4.63739C8.51841 4.90688 8.51846 5.17349 8.51852 5.44297C8.51855 5.64652 8.51859 5.85006 8.52007 6.05504C8.52008 6.10378 8.52008 6.14965 8.52009 6.19838C8.5187 6.38329 8.42269 6.55385 8.26216 6.64556C8.09447 6.74157 7.87946 6.73579 7.7189 6.62682C7.57697 6.53076 7.49237 6.36876 7.49233 6.19675C7.49231 6.04768 7.49228 5.8986 7.49225 5.74953C7.4922 5.47718 7.49214 5.20483 7.49066 4.93105C7.48917 4.63433 7.49055 4.33761 7.48906 4.0409C7.48899 3.70548 7.48893 3.37006 7.48743 3.03321C7.48594 2.71642 7.48731 2.39964 7.48581 2.08285C7.48581 2.04158 7.43591 2.02092 7.40673 2.0501C7.32656 2.13028 7.24598 2.21086 7.1662 2.29063C7.04582 2.41102 6.924 2.53284 6.80362 2.65322C6.75489 2.70195 6.7076 2.74924 6.65887 2.79797C6.57575 2.88109 6.49693 2.97138 6.38656 3.01866C6.1945 3.10176 5.96658 3.05728 5.81891 2.90961C5.67124 2.76194 5.62819 2.53259 5.70986 2.34196C5.74998 2.24736 5.8202 2.18 5.89043 2.10978C5.96925 2.03096 6.04807 1.95213 6.1269 1.87331C6.21862 1.78159 6.31177 1.68844 6.40349 1.59672C6.51384 1.48636 6.62563 1.37458 6.73598 1.26423C6.8707 1.12951 7.00685 0.993364 7.14156 0.858648C7.24188 0.758328 7.3422 0.658008 7.44252 0.557689C7.50415 0.496063 7.56434 0.435871 7.62596 0.374247C7.74635 0.253862 7.91261 0.193691 8.08176 0.222392C8.18927 0.23818 8.28818 0.288368 8.36417 0.364353Z" fill="#006EFF"/>
</svg>
