<svg width="20" height="20" viewBox="0 0 20 20" fill="none" xmlns="http://www.w3.org/2000/svg">
<path d="M2.63432 8.83186C1.85734 8.83186 1.33936 8.31387 1.33936 7.53689V2.74553C1.33936 1.96855 1.85734 1.45056 2.63432 1.45056H7.42569C8.20267 1.45056 8.72065 1.96855 8.72065 2.74553V7.53689C8.72065 8.31387 8.20267 8.83186 7.42569 8.83186H2.63432Z" fill="#006EFF" stroke="#006EFF" stroke-width="1.5" stroke-linecap="round" stroke-linejoin="round"/>
<path d="M11.958 5.20622C11.958 3.13428 13.6415 1.58032 15.5839 1.58032C17.6559 1.58032 19.2098 3.26378 19.2098 5.20622C19.3393 7.14867 17.6559 8.83212 15.5839 8.83212C13.512 8.83212 11.958 7.14867 11.958 5.20622Z" fill="#006EFF" stroke="#006EFF" stroke-width="1.5" stroke-linecap="round" stroke-linejoin="round"/>
<path d="M2.63432 19.0837C1.85734 19.0837 1.33936 18.5657 1.33936 17.7887V13.1269C1.33936 12.3499 1.85734 11.8319 2.63432 11.8319H7.42569C8.20267 11.8319 8.72065 12.3499 8.72065 13.1269V17.9182C8.72065 18.5657 8.20267 19.0837 7.42569 19.0837H2.63432Z" fill="#006EFF" stroke="#006EFF" stroke-width="1.5" stroke-linecap="round" stroke-linejoin="round"/>
<path d="M13.0157 19.0837C12.2387 19.0837 11.7207 18.5657 11.7207 17.7887V13.1269C11.7207 12.3499 12.2387 11.8319 13.0157 11.8319H17.807C18.584 11.8319 19.102 12.3499 19.102 13.1269V17.9182C19.102 18.5657 18.4545 19.0837 17.807 19.0837H13.0157Z" fill="#006EFF" stroke="#006EFF" stroke-width="1.5" stroke-linecap="round" stroke-linejoin="round"/>
</svg>
