<svg width="21" height="21" viewBox="0 0 21 21" fill="none" xmlns="http://www.w3.org/2000/svg">
<path d="M20.2168 2.72112C20.2168 1.6417 19.3422 0.767151 18.2628 0.767151H3.17077C2.09135 0.767151 1.2168 1.6417 1.2168 2.72112V17.8132C1.2168 18.8926 2.09135 19.7672 3.17077 19.7672H18.2628C19.3422 19.7672 20.2168 18.8926 20.2168 17.8132V2.72112Z" fill="#006EFF" stroke="#006EFF" stroke-linecap="round" stroke-linejoin="round"/>
<path d="M16.1032 10.2672H10.3096H16.1032Z" fill="#006EFF"/>
<path d="M16.1032 10.2672H10.3096" stroke="white" stroke-linecap="round" stroke-linejoin="round"/>
<path d="M5.95494 10.0724C6.06247 10.1799 6.06247 10.3543 5.95494 10.4618C5.8474 10.5694 5.67305 10.5694 5.56551 10.4618C5.45798 10.3543 5.45798 10.1799 5.56551 10.0724C5.67305 9.96488 5.8474 9.96488 5.95494 10.0724Z" fill="#006EFF" stroke="white" stroke-linecap="round" stroke-linejoin="round"/>
<path d="M16.1032 5.31061H10.3096H16.1032Z" fill="#006EFF"/>
<path d="M16.1032 5.31061H10.3096" stroke="white" stroke-linecap="round" stroke-linejoin="round"/>
<path d="M5.95494 5.11935C6.06247 5.22688 6.06247 5.40123 5.95494 5.50877C5.8474 5.6163 5.67305 5.6163 5.56551 5.50877C5.45798 5.40123 5.45798 5.22688 5.56551 5.11935C5.67305 5.01181 5.8474 5.01181 5.95494 5.11935Z" fill="#006EFF" stroke="white" stroke-linecap="round" stroke-linejoin="round"/>
<path d="M16.2018 15.2237H10.4082H16.2018Z" fill="#006EFF"/>
<path d="M16.2018 15.2237H10.4082" stroke="white" stroke-linecap="round" stroke-linejoin="round"/>
<path d="M6.0521 15.0333C6.15964 15.1408 6.15964 15.3151 6.0521 15.4227C5.94457 15.5302 5.77022 15.5302 5.66268 15.4227C5.55515 15.3151 5.55515 15.1408 5.66268 15.0333C5.77022 14.9257 5.94457 14.9257 6.0521 15.0333Z" fill="#006EFF" stroke="white" stroke-linecap="round" stroke-linejoin="round"/>
</svg>
