<svg width="16" height="17" viewBox="0 0 16 17" fill="none" xmlns="http://www.w3.org/2000/svg">
<g clip-path="url(#clip0_54_331)">
<path d="M16 2.59316C16 1.43712 15.0629 0.5 13.9068 0.5H2.09316C0.937118 0.5 0 1.43712 0 2.59316V14.4068C0 15.5629 0.937118 16.5 2.09316 16.5H13.9068C15.0629 16.5 16 15.5629 16 14.4068V2.59316ZM12.2437 12.0269H3.81359C3.4572 12.0269 3.16843 11.7381 3.16843 11.3817C3.16843 11.0253 3.4572 10.7366 3.81359 10.7366H12.2437C12.6001 10.7366 12.8889 11.0253 12.8889 11.3817C12.8889 11.7381 12.6001 12.0269 12.2437 12.0269ZM12.2437 9.01613H3.81359C3.4572 9.01613 3.16843 8.72736 3.16843 8.37097C3.16843 8.01458 3.4572 7.72581 3.81359 7.72581H12.2437C12.6001 7.72581 12.8889 8.01458 12.8889 8.37097C12.8889 8.72736 12.6001 9.01613 12.2437 9.01613ZM12.2437 6.26344H5.79209C5.4357 6.26344 5.14692 5.97467 5.14692 5.61828C5.14692 5.26189 5.4357 4.97312 5.79209 4.97312H12.2437C12.6001 4.97312 12.8889 5.26189 12.8889 5.61828C12.8889 5.97467 12.6001 6.26344 12.2437 6.26344Z" fill="#B7C9F8"/>
</g>
<defs>
<clipPath id="clip0_54_331">
<rect width="16" height="16" fill="white" transform="translate(0 0.5)"/>
</clipPath>
</defs>
</svg>
