<svg width="20" height="21" viewBox="0 0 20 21" fill="none" xmlns="http://www.w3.org/2000/svg">
<g clip-path="url(#clip0_54_335)">
<path d="M18.9025 8.32833L17.3358 8.12917C17.2067 7.73167 17.0475 7.34833 16.8617 6.98417L17.8292 5.73833C18.2208 5.23417 18.175 4.5225 17.7275 4.08917L16.415 2.77667C15.9775 2.325 15.2658 2.28 14.7608 2.67083L13.5167 3.63833C13.1525 3.4525 12.7692 3.29333 12.3708 3.16417L12.1717 1.6C12.0967 0.9725 11.5642 0.5 10.9333 0.5H9.06667C8.43583 0.5 7.90333 0.9725 7.82833 1.5975L7.62917 3.16417C7.23083 3.29333 6.8475 3.45167 6.48333 3.63833L5.23833 2.67083C4.735 2.28 4.02333 2.325 3.58917 2.7725L2.27667 4.08417C1.825 4.5225 1.77917 5.23417 2.17083 5.73917L3.13833 6.98417C2.95167 7.34833 2.79333 7.73167 2.66417 8.12917L1.1 8.32833C0.4725 8.40333 0 8.93583 0 9.56667V11.4333C0 12.0642 0.4725 12.5967 1.0975 12.6717L2.66417 12.8708C2.79333 13.2683 2.9525 13.6517 3.13833 14.0158L2.17083 15.2617C1.77917 15.7658 1.825 16.4775 2.2725 16.9108L3.585 18.2233C4.02333 18.6742 4.73417 18.7192 5.23917 18.3283L6.48417 17.3608C6.84833 17.5475 7.23167 17.7067 7.62917 17.835L7.82833 19.3983C7.90333 20.0275 8.43583 20.5 9.06667 20.5H10.9333C11.5642 20.5 12.0967 20.0275 12.1717 19.4025L12.3708 17.8358C12.7683 17.7067 13.1517 17.5475 13.5158 17.3617L14.7617 18.3292C15.2658 18.7208 15.9775 18.675 16.4108 18.2275L17.7233 16.915C18.175 16.4767 18.2208 15.7658 17.8292 15.2608L16.8617 14.0158C17.0483 13.6517 17.2075 13.2683 17.3358 12.8708L18.8992 12.6717C19.5267 12.5967 19.9992 12.0642 19.9992 11.4333V9.56667C20 8.93583 19.5275 8.40333 18.9025 8.32833ZM10 14.6667C7.7025 14.6667 5.83333 12.7975 5.83333 10.5C5.83333 8.2025 7.7025 6.33333 10 6.33333C12.2975 6.33333 14.1667 8.2025 14.1667 10.5C14.1667 12.7975 12.2975 14.6667 10 14.6667Z" fill="#B7C9F8"/>
</g>
<defs>
<clipPath id="clip0_54_335">
<rect width="20" height="20" fill="white" transform="translate(0 0.5)"/>
</clipPath>
</defs>
</svg>
